<svg xmlns="http://www.w3.org/2000/svg" width="192" height="106" viewBox="0 0 192 106">
  <defs>
    <style>
      .cls-1 {
        fill: #272f2a;
        fill-rule: evenodd;
      }

      .cls-2 {
        fill: #0eb946;
        stroke: #2fa055;
        stroke-width: 5px;
      }
    </style>
  </defs>
  <path id="car" class="cls-1" d="M59.443,55.849a2.263,2.263,0,0,0-1.783-.816,2.2,2.2,0,0,0-1.525.559,5.731,5.731,0,0,0-1.16,1.547,7.139,7.139,0,0,1-2.224,2.492,5.419,5.419,0,0,1-3.019.816,5.678,5.678,0,0,1-2.406-.5,5.054,5.054,0,0,1-1.869-1.483A6.9,6.9,0,0,1,44.275,56.1a10.724,10.724,0,0,1-.408-3.04,8.784,8.784,0,0,1,1.59-5.554,5.517,5.517,0,0,1,7.165-1.214,8.893,8.893,0,0,1,2.245,2.449,5.942,5.942,0,0,0,1.085,1.214,1.916,1.916,0,0,0,1.214.376,2.689,2.689,0,0,0,1.9-.73,2.344,2.344,0,0,0,.784-1.783,4.449,4.449,0,0,0-.7-2.224,8.242,8.242,0,0,0-2.02-2.245,10.924,10.924,0,0,0-3.223-1.719,13.734,13.734,0,0,0-10.5.849,10.023,10.023,0,0,0-4.039,4.286,13.99,13.99,0,0,0-1.4,6.381,11.734,11.734,0,0,0,3.051,8.5q3.05,3.169,8.486,3.169a14.362,14.362,0,0,0,4.6-.687A10.326,10.326,0,0,0,57.5,62.3a8.05,8.05,0,0,0,2-2.374,5.061,5.061,0,0,0,.655-2.342A2.616,2.616,0,0,0,59.443,55.849ZM83.059,64a2.593,2.593,0,0,0,1.783.849,2.844,2.844,0,0,0,1.923-.741,2.162,2.162,0,0,0,.849-1.644,10.883,10.883,0,0,0-.548-2.31,11.792,11.792,0,0,1-.548-3.448q0.021-1.761.032-3.2T86.561,50a12.64,12.64,0,0,0-.913-5.242,5.655,5.655,0,0,0-3.126-2.89,16.361,16.361,0,0,0-6.08-.913,15.392,15.392,0,0,0-5.779.945,7.838,7.838,0,0,0-3.416,2.406,4.961,4.961,0,0,0-1.1,3.008,2.063,2.063,0,0,0,.72,1.622,2.5,2.5,0,0,0,1.708.634,1.867,1.867,0,0,0,1.429-.4,19.855,19.855,0,0,0,1.139-1.644,5.463,5.463,0,0,1,1.934-1.869,7.141,7.141,0,0,1,3.362-.623q2.6,0,3.427,1.085a6.12,6.12,0,0,1,.934,3.405q-1.848.537-3.427,0.913t-3.792.827q-2.213.451-2.772,0.58a7.628,7.628,0,0,0-4.189,2.277,5.923,5.923,0,0,0-1.525,4.1,6.269,6.269,0,0,0,.924,3.308,6.519,6.519,0,0,0,2.632,2.417,8.449,8.449,0,0,0,3.964.892,11.507,11.507,0,0,0,4.458-.827,18.155,18.155,0,0,0,4.114-2.481A12.567,12.567,0,0,0,83.059,64ZM80.8,53.894a8.982,8.982,0,0,1-.795,4.383,5.089,5.089,0,0,1-2.159,1.966A6.874,6.874,0,0,1,74.637,61a3.736,3.736,0,0,1-2.643-.934,2.974,2.974,0,0,1-1.01-2.267,2.476,2.476,0,0,1,.859-2.009,4.634,4.634,0,0,1,1.8-.967q0.945-.247,3.405-0.773a29.5,29.5,0,0,0,3.749-1v0.838Zm18.8-1.987a14.012,14.012,0,0,1,.623-3.169,4.339,4.339,0,0,1,1.268-2.009,3.188,3.188,0,0,1,2.105-.677,7.25,7.25,0,0,1,2.181.4,7.345,7.345,0,0,0,1.557.4,2.3,2.3,0,0,0,1.6-.7,2.329,2.329,0,0,0,.741-1.773,2.759,2.759,0,0,0-1.74-2.449A7.564,7.564,0,0,0,104.354,41a4.461,4.461,0,0,0-2.954.924,10.256,10.256,0,0,0-2.159,2.729,5.1,5.1,0,0,0-.709-2.729A2.386,2.386,0,0,0,96.426,41q-2.858,0-2.858,3.953V61.284a3.85,3.85,0,0,0,.817,2.664,2.685,2.685,0,0,0,2.084.9,2.793,2.793,0,0,0,2.127-.892,3.778,3.778,0,0,0,.838-2.675v-4.9Q99.434,53.743,99.606,51.906Z"/>
  <path id="d" class="cls-1" d="M145.884,62.667a2.557,2.557,0,0,0,1.987.87,2.593,2.593,0,0,0,2-.838,3.591,3.591,0,0,0,.774-2.514V34.318a3.781,3.781,0,0,0-.72-2.5,2.543,2.543,0,0,0-2.052-.849,2.45,2.45,0,0,0-2.052.924,4.382,4.382,0,0,0-.719,2.729v8.658a11.926,11.926,0,0,0-3.395-2.675,9.494,9.494,0,0,0-4.275-.87,8.935,8.935,0,0,0-7.069,3.072q-2.685,3.073-2.685,8.572a16.574,16.574,0,0,0,.677,4.834A11.6,11.6,0,0,0,130.34,60.1a9.089,9.089,0,0,0,3.1,2.546,8.643,8.643,0,0,0,3.9.892,9.363,9.363,0,0,0,2.932-.44,8.781,8.781,0,0,0,2.493-1.289,14.919,14.919,0,0,0,2.331-2.2v0.58A3.581,3.581,0,0,0,145.884,62.667ZM134.261,47.606a5.853,5.853,0,0,1,1.966-2.621,4.8,4.8,0,0,1,2.878-.913,4.929,4.929,0,0,1,2.847.892,6.057,6.057,0,0,1,2.063,2.578,9.729,9.729,0,0,1,.762,4.028,9.988,9.988,0,0,1-.762,4.157,5.543,5.543,0,0,1-2.041,2.471,5.194,5.194,0,0,1-2.826.806,5.011,5.011,0,0,1-2.814-.849,5.659,5.659,0,0,1-2.03-2.524,10.01,10.01,0,0,1-.742-4.061A10.409,10.409,0,0,1,134.261,47.606Z"/>
  <rect class="cls-2" x="115" y="39" width="7" height="25" rx="3.5" ry="3.5"/>
  <path class="cls-1" d="M119,26a5,5,0,1,1-5,5A5,5,0,0,1,119,26Zm0.1,1.6a3.5,3.5,0,1,1-3.5,3.5A3.5,3.5,0,0,1,119.1,27.6Z"/>
</svg>
